<?xml version="1.0" encoding="UTF-8" standalone="no"?>
<svg width="208px" height="24px" viewBox="0 0 208 24" version="1.1" xmlns="http://www.w3.org/2000/svg" xmlns:xlink="http://www.w3.org/1999/xlink">
    <!-- Generator: Sketch 48.2 (47327) - http://www.bohemiancoding.com/sketch -->
    <title>logo_white</title>
    <desc>Created with Sketch.</desc>
    <defs>
        <polygon id="path-1" points="0 0.478752 8.652096 0.478752 8.652096 13.303392 0 13.303392"></polygon>
        <polygon id="path-3" points="0.29568 0.33696 23.04 0.33696 23.04 23.039712 0.29568 23.039712"></polygon>
    </defs>
    <g id="SF_Interface-Elements" stroke="none" stroke-width="1" fill="none" fill-rule="evenodd" transform="translate(-617.000000, -215.000000)">
        <g id="logo_white+bkg" transform="translate(593.000000, 197.000000)">
            <g id="logo_white" transform="translate(24.000000, 18.000000)">
                <path d="M90.768768,12.334176 C90.768768,9.930336 92.483328,7.713696 94.988928,7.713696 C97.562688,7.713696 99.210048,9.547296 99.210048,12.334176 C99.210048,14.795616 97.490688,16.903776 94.988928,16.903776 C92.483328,16.903776 90.768768,14.941536 90.768768,12.334176 M88.278528,12.334176 C88.278528,16.216416 91.250688,19.047456 94.988928,19.047456 C98.730048,19.047456 101.702208,16.055136 101.702208,12.334176 C101.702208,8.331936 98.837568,5.580576 94.988928,5.580576 C91.244928,5.580576 88.278528,8.587296 88.278528,12.334176" id="Fill-1" fill="#FFFFFF"></path>
                <path d="M73.59936,12.299424 C73.59936,16.216224 76.38816,18.980064 80.31168,18.980064 C82.49088,18.980064 84.27648,18.113184 85.47552,16.462944 L85.5408,16.362144 L83.6976,14.827104 L83.63616,14.950944 C82.92864,16.233504 81.81888,16.897824 80.31168,16.897824 C77.74848,16.897824 76.09056,14.893344 76.09056,12.299424 C76.09056,9.717024 77.9328,7.719264 80.31168,7.719264 C81.73728,7.719264 83.01024,8.514144 83.61984,9.583584 L83.68512,9.688224 L85.57632,8.188704 L85.49472,8.086944 C84.21888,6.518304 82.33056,5.618784 80.31168,5.618784 C76.67904,5.618784 73.59936,8.404704 73.59936,12.299424" id="Fill-3" fill="#FFFFFF"></path>
                <polygon id="Fill-5" fill="#FFFFFF" points="167.851872 13.328832 167.851872 18.726912 170.268192 18.726912 170.268192 13.328832 174.961632 5.900352 172.303392 5.900352 169.060512 11.046912 165.921312 5.901312 163.167072 5.900352"></polygon>
                <path d="M126.8184,7.83741724 L127.41264,7.83744 C129.38352,7.83264 130.23888,8.5872 130.23888,9.9456 C130.23888,11.28384 129.3336,12.01248 127.41264,12.01248 C127.13424,12.00384 126.97488,11.99328 126.8184,11.96832 L126.8184,7.83741724 Z M124.40016,5.90016 L124.40016,18.72576 L126.8184,18.72576 L126.8184,13.9536 C126.98064,13.97664 127.21104,13.99296 127.41168,13.99296 C130.51152,13.99296 132.72528,12.62112 132.72528,9.95328 C132.72528,7.3968 130.87728,5.90016 127.40976,5.90016 L124.40016,5.90016 Z" id="Fill-7" fill="#FFFFFF"></path>
                <polygon id="Fill-9" fill="#FFFFFF" points="108.217536 11.804448 112.202496 19.050528 116.146176 11.798688 117.731136 18.726048 120.272256 18.726048 116.904576 5.676768 112.245696 14.340768 107.500416 5.676768 104.308416 18.727968 106.674816 18.727968"></polygon>
                <polygon id="Fill-11" fill="#FFFFFF" points="42.577536 13.51488 34.083456 5.67648 34.083456 18.72864 36.435456 18.72864 36.435456 11.20128 44.919936 19.032 44.919936 5.8992 42.577536 5.8992"></polygon>
                <polygon id="Fill-13" fill="#FFFFFF" points="26.089728 5.901024 26.089728 18.726624 27.297408 18.726624 28.527168 18.726624 28.527168 5.901024"></polygon>
                <path d="M15.085344,13.931136 L16.721184,10.239936 L18.240864,13.931136 L15.085344,13.931136 Z M22.965024,18.726336 L16.721184,5.675136 L10.469664,18.726336 L12.923424,18.726336 L14.151264,15.999936 L19.097184,15.999936 L20.282784,18.726336 L22.965024,18.726336 Z" id="Fill-15" fill="#FFFFFF"></path>
                <g id="Group-19" transform="translate(0.000000, 5.423424)">
                    <mask id="mask-2" fill="white">
                        <use xlink:href="#path-1"></use>
                    </mask>
                    <g id="Clip-18"></g>
                    <path d="M2.414016,5.908512 L2.415936,2.415072 L2.844096,2.416032 C4.624896,2.416032 5.503296,2.896032 5.503296,4.180512 C5.503296,5.490912 4.606656,5.906592 2.929536,5.906592 L2.414016,5.908512 Z M3.483456,7.865952 C5.174016,7.863072 6.158976,8.278752 6.158976,9.643872 C6.158976,10.831392 5.255616,11.354592 3.478656,11.366112 L2.414016,11.366112 L2.414016,7.86593716 L3.483456,7.865952 Z M6.179136,6.467232 C7.182336,6.017952 7.924416,5.034912 7.924416,3.809952 C7.924416,1.590432 6.161856,0.478752 3.074496,0.478752 L-0.000384,0.478752 L-0.000384,13.303392 L3.634176,13.302432 C6.918336,13.302432 8.652096,11.977632 8.652096,9.614112 C8.652096,8.048352 7.669056,6.966432 6.179136,6.467232 Z" id="Fill-17" fill="#FFFFFF" mask="url(#mask-2)"></path>
                </g>
                <path d="M60.832032,16.101984 C60.475872,16.590624 59.681952,17.085984 58.827552,17.085984 C57.637152,17.085984 56.890272,16.344864 56.890272,15.284064 C56.890272,14.383584 57.563232,13.561824 58.258272,13.196064 C58.277472,13.186464 58.301472,13.176864 58.315872,13.167264 L60.832032,16.101984 Z M57.958752,8.799264 C57.958752,7.898784 58.597152,7.349664 59.437152,7.349664 C60.280032,7.349664 60.840672,7.888224 60.840672,8.681184 C60.840672,9.564384 59.957472,10.259424 59.070432,10.712544 C58.617312,10.271904 57.958752,9.552864 57.958752,8.799264 Z M63.202272,18.741984 L66.031392,18.741984 C66.031392,18.741984 63.862752,16.287264 63.529632,15.870624 C63.837792,15.505824 65.671392,12.655584 65.671392,12.655584 L63.396192,12.651744 L62.260512,14.366304 L60.225312,12.074784 C61.912992,11.187744 62.981472,9.930144 62.981472,8.582304 C62.981472,6.776544 61.414752,5.600544 59.447712,5.600544 C57.223392,5.600544 55.741152,6.910944 55.741152,8.757024 C55.741152,10.069344 56.558112,11.123424 57.125472,11.770464 C55.773792,12.507744 54.576672,13.611744 54.576672,15.489504 C54.576672,17.493984 56.208672,19.047264 58.560672,19.047264 C59.974752,19.047264 61.171872,18.549984 62.143392,17.521824 L63.202272,18.741984 Z" id="Fill-20" fill="#FFFFFF"></path>
                <polygon id="Fill-22" fill="#FFFFFF" points="157.948128 13.512096 149.457888 5.674656 149.457888 18.726816 151.806048 18.726816 151.806048 11.200416 160.291488 19.029216 160.291488 5.900256 157.948128 5.900256"></polygon>
                <path d="M138.462144,13.930272 L140.096064,10.238112 L141.614784,13.930272 L138.462144,13.930272 Z M146.339904,18.725472 L140.096064,5.673312 L133.845504,18.725472 L136.298304,18.725472 L137.529024,15.999072 L142.472064,15.999072 L143.659584,18.725472 L146.339904,18.725472 Z" id="Fill-24" fill="#FFFFFF"></path>
                <g id="Group-28" transform="translate(184.320000, 0.623424)">
                    <mask id="mask-4" fill="white">
                        <use xlink:href="#path-3"></use>
                    </mask>
                    <g id="Clip-27"></g>
                    <path d="M23.04,11.687712 C23.04,17.957472 17.9472,23.039712 11.66784,23.039712 C5.38656,23.039712 0.29568,17.957472 0.29568,11.687712 C0.29568,5.418912 5.38656,0.336672 11.66784,0.336672 C12.2832,0.336672 12.88896,0.386592 13.48032,0.481632 L12.50976,1.737312 C12.24192,1.715232 11.96736,1.700832 11.69376,1.700832 C6.40416,1.700832 2.11776,5.884512 2.11776,11.043552 C2.11776,16.204512 6.40416,20.387232 11.69376,20.387232 C16.98144,20.387232 21.26976,16.204512 21.26976,11.043552 C21.26976,7.072992 18.73152,3.684192 15.14976,2.330592 L14.80416,0.778272 C19.56,2.137632 23.04,6.504672 23.04,11.687712 Z M15.67296,12.232992 L13.61664,2.992992 L7.87008,10.431072 L15.67296,12.232992 Z" id="Fill-26" fill="#FFFFFF" mask="url(#mask-4)"></path>
                </g>
            </g>
        </g>
    </g>
</svg>