<?xml version="1.0" encoding="UTF-8"?>
<svg width="279px" height="31px" viewBox="0 0 279 31" version="1.1" xmlns="http://www.w3.org/2000/svg" xmlns:xlink="http://www.w3.org/1999/xlink">
    <!-- Generator: Sketch 51 (57462) - http://www.bohemiancoding.com/sketch -->
    <title>red-bain-logo-orig</title>
    <desc>Created with Sketch.</desc>
    <defs></defs>
    <g id="Page-1" stroke="none" stroke-width="1" fill="none" fill-rule="evenodd">
        <g id="red-bain-logo-orig" fill="#CB2026" fill-rule="nonzero">
            <path d="M118.8,15.3 C118.756151,17.7001223 119.690275,20.0148729 121.387701,21.7122989 C123.085127,23.4097248 125.399878,24.3438489 127.8,24.3 C132.770563,24.3 136.8,20.2705627 136.8,15.3 C136.898116,12.8752789 135.984861,10.5187072 134.278428,8.79331331 C132.571994,7.06791946 130.225657,6.12868123 127.8,6.2 C122.815589,6.26018675 118.805108,10.3152283 118.8,15.3 Z M122.2,15.3 C122.2,12.1 124.5,9.1 127.9,9.1 C131.3,9.1 133.6,11.6 133.6,15.3 C133.684501,16.8730618 133.124387,18.4126435 132.048839,19.5636689 C130.97329,20.7146943 129.475173,21.377781 127.9,21.4 C124.5,21.5 122.2,18.9 122.2,15.3 Z" id="Shape"></path>
            <path d="M99.1,15.3 C99.0062091,17.714481 99.9242668,20.0585662 101.63285,21.7671497 C103.341434,23.4757332 105.685519,24.3937909 108.1,24.3 C110.821102,24.3791368 113.40489,23.105966 115,20.9 L115.1,20.8 L112.6,18.7 L112.5,18.9 C111.633837,20.5685876 109.878174,21.5829707 108,21.5 C104.6,21.5 102.3,18.8 102.3,15.3 C102.215831,13.7173612 102.773018,12.1675834 103.845661,11.0008494 C104.918303,9.83411549 106.415879,9.14888844 108,9.1 C109.822421,9.13309442 111.509112,10.070145 112.5,11.6 L112.6,11.7 L115.1,9.7 L115,9.6 C113.282857,7.50175642 110.71129,6.28944633 108,6.3 C105.620472,6.29442332 103.338259,7.24408548 101.6651,8.93604365 C99.9919417,10.6280018 99.0678376,12.9206833 99.1,15.3 Z" id="Shape"></path>
            <polygon id="Shape" points="225.9 16.7 225.9 23.9 229.1 23.9 229.1 16.7 235.4 6.7 231.9 6.7 227.5 13.6 223.3 6.7 219.6 6.7"></polygon>
            <path d="M167.4,6.7 L167.4,23.9 L170.7,23.9 L170.7,17.5 C170.9,17.5 171.2,17.6 171.5,17.6 C175.7,17.6 178.6,15.8 178.6,12.2 C178.6,8.8 176.1,6.7 171.4,6.7 L167.4,6.7 Z M170.7,9.3 L171.5,9.3 C174.2,9.3 175.3,10.3 175.3,12.1 C175.3,13.9 174.1,14.9 171.5,14.9 C171.229177,14.9305182 170.954978,14.8962433 170.7,14.8 L170.7,9.3 Z" id="Shape"></path>
            <polygon id="Shape" points="145.6 14.6 151 24.4 156.3 14.6 158.4 23.9 161.8 23.9 157.3 6.4 151.1 18 144.7 6.4 140.4 24 143.6 24"></polygon>
            <polygon id="Shape" points="57.3 16.9 45.9 6.4 45.9 24 49 24 49 13.8 60.5 24.4 60.5 6.7 57.3 6.7"></polygon>
            <polygon id="Shape" points="35.1 6.7 35.1 23.9 38.4 23.9 38.4 6.7"></polygon>
            <path d="M30.9,23.9 L22.5,6.3 L14.1,23.9 L17.4,23.9 L19.1,20.2 L25.7,20.2 L27.3,23.9 L30.9,23.9 Z M20.3,17.5 L22.5,12.5 L24.5,17.5 L20.3,17.5 Z" id="Shape"></path>
            <path d="M8.3,14.8 C9.7106369,14.1598622 10.6119947,12.7490413 10.6,11.2 C10.6,8.2 8.2,6.7 4.1,6.7 L0,6.7 L0,23.9 L4.9,23.9 C9.3,23.9 11.7,22.1 11.7,18.9 C11.6371537,16.9167982 10.2373184,15.2287615 8.3,14.8 Z M4.7,16.6 C7,16.6 8.3,17.2 8.3,19 C8.3,20.6 7.1,21.3 4.7,21.3 L3.3,21.3 L3.3,16.6 L4.7,16.6 Z M3.3,14 L3.3,9.3 L3.9,9.3 C6.3,9.3 7.5,9.9 7.5,11.7 C7.5,13.5 6.3,14 4,14 L3.3,14 Z" id="Shape"></path>
            <path d="M85.1,24 L88.9,24 C88.9,24 86,20.7 85.5,20.1 C85.9,19.6 88.4,15.8 88.4,15.8 L85.3,15.8 L83.8,18.1 L81.1,15 C83.4,13.8 84.8,12.1 84.8,10.3 C84.8,7.9 82.7,6.3 80,6.3 C77,6.3 75,8.1 75,10.5 C75.1073325,12.0538815 75.7838058,13.5136398 76.9,14.6 C75.1,15.6 73.5,17.1 73.5,19.6 C73.5,22.3 75.7,24.4 78.9,24.4 C80.7292655,24.4313857 82.4815489,23.6647617 83.7,22.3 L85.1,24 Z M78,10.6 C77.9831681,10.0645843 78.1884718,9.54603804 78.5672549,9.16725491 C78.946038,8.78847178 79.4645843,8.58316806 80,8.6 C80.4975638,8.56012643 80.9886562,8.73340506 81.351022,9.07669896 C81.7133878,9.41999287 81.9129397,9.90100878 81.9,10.4 C81.9,11.6 80.7,12.5 79.5,13.1 C78.6883244,12.4984946 78.1487751,11.5992457 78,10.6 Z M81.9,20.4 C81.2537719,21.2329008 80.2541026,21.714223 79.2,21.7 C78.5273811,21.765688 77.8587117,21.5411004 77.3621176,21.0827059 C76.8655236,20.6243114 76.5882454,19.9757167 76.6,19.3 C76.6821362,18.1204093 77.3609704,17.0644449 78.4,16.5 L78.5,16.5 L81.9,20.4 Z" id="Shape"></path>
            <polygon id="Shape" points="212.5 16.9 201.1 6.4 201.1 23.9 204.3 23.9 204.3 13.8 215.7 24.4 215.7 6.7 212.5 6.7"></polygon>
            <path d="M196.9,23.9 L188.5,6.3 L180.1,23.9 L183.4,23.9 L185.1,20.2 L191.7,20.2 L193.3,23.9 L196.9,23.9 Z M186.3,17.5 L188.5,12.5 L190.5,17.5 L186.3,17.5 Z" id="Shape"></path>
            <path d="M269.1,16.1 L266.3,3.7 L258.6,13.7 L269.1,16.1 Z M279,15.3 C279,23.7499567 272.149957,30.6 263.7,30.6 C255.250043,30.6 248.4,23.7499567 248.4,15.3 C248.4,6.85004333 255.250043,1.55223186e-15 263.7,0 C264.503367,0.0169497711 265.304908,0.0837448435 266.1,0.2 L264.8,1.9 L263.7,1.9 C260.317638,1.85731668 257.057154,3.16151534 254.6373,5.52509318 C252.217447,7.88867103 250.836902,11.1175705 250.8,14.5 C250.8,21.624473 256.575527,27.3999992 263.7,27.3999992 C270.824473,27.3999992 276.6,21.624473 276.6,14.5 C276.564236,9.27471337 273.29951,4.61650748 268.4,2.8 L267.9,0.7 C274.460092,2.51992229 279.000616,8.49214248 279,15.3 Z" id="Shape"></path>
        </g>
    </g>
</svg>